<svg xmlns="http://www.w3.org/2000/svg" xmlns:xlink="http://www.w3.org/1999/xlink" version="1.1" id="Слой_1" x="0px" y="0px" viewBox="0 0 64 64" style="fill: rgb(255, 255, 255);" xml:space="preserve" width="64" height="64">
<linearGradient id="SVGID_1__44781" gradientUnits="userSpaceOnUse" x1="27" y1="21.75" x2="27" y2="28.3539" spreadMethod="reflect">
	<stop offset="0" style="stop-color:#6DC7FF"/>
	<stop offset="1" style="stop-color:#E6ABFF"/>
</linearGradient>
<path style="fill:url(#SVGID_1__44781);" d="M32,28H22c-0.552,0-1-0.448-1-1v-4c0-0.552,0.448-1,1-1h10c0.552,0,1,0.448,1,1v4  C33,27.552,32.552,28,32,28z"/>
<linearGradient id="SVGID_2__44781" gradientUnits="userSpaceOnUse" x1="32" y1="5.375" x2="32" y2="58.524" spreadMethod="reflect">
	<stop offset="0" style="stop-color:#1A6DFF"/>
	<stop offset="1" style="stop-color:#C822FF"/>
</linearGradient>
<path style="fill:url(#SVGID_2__44781);" d="M49,6H35.052c-0.019,0-0.036,0-0.054,0c-1.03,0-2.001,0.386-2.752,1.099  C31.454,7.851,31,8.908,31,10H16c-2.757,0-5,2.243-5,5v38c0,2.757,2.243,5,5,5h28c2.757,0,5-2.243,5-5V27.998  c0.618,0.219,1.305,0.236,1.973,0.006C52.204,27.581,53,26.467,53,25.165V10C53,7.794,51.206,6,49,6z M39.027,28.004  c0.33,0.113,0.665,0.168,0.994,0.168c0.902,0,1.764-0.411,2.349-1.163l0.63-0.81V42H17V16h20v9.165  C37,26.467,37.796,27.581,39.027,28.004z M33.623,8.549C33.999,8.192,34.484,8,35,8h0.034c0.025,0,0.05,0.001,0.074,0.003  c0.99,0.052,1.796,0.933,1.876,1.997H33C33,9.446,33.222,8.931,33.623,8.549z M47,53c0,1.654-1.346,3-3,3H16c-1.654,0-3-1.346-3-3  s1.346-3,3-3h28c1.125,0,2.164-0.373,3-1.002V53z M44,48H16c-1.13,0-2.162,0.391-3,1.025V15c0-1.654,1.346-3,3-3h21v2H17  c-1.103,0-2,0.897-2,2v26c0,1.103,0.897,2,2,2h26c1.103,0,2-0.897,2-2V24.276c0.299,0,0.599,0.123,0.79,0.369L47,26.199V45  C47,46.654,45.654,48,44,48z M51,25.165c0,0.664-0.518,0.893-0.677,0.947c-0.159,0.057-0.707,0.192-1.115-0.332l-1.839-2.363  c-0.573-0.737-1.437-1.159-2.369-1.159s-1.796,0.422-2.368,1.158l-1.84,2.364c-0.407,0.522-0.956,0.387-1.115,0.332  S39,25.829,39,25.165V10.17c0-0.794-0.212-1.537-0.581-2.17H49c1.103,0,2,0.897,2,2V25.165z"/>
<linearGradient id="SVGID_3__44781" gradientUnits="userSpaceOnUse" x1="27" y1="5.375" x2="27" y2="58.524" spreadMethod="reflect">
	<stop offset="0" style="stop-color:#1A6DFF"/>
	<stop offset="1" style="stop-color:#C822FF"/>
</linearGradient>
<rect x="21" y="30" style="fill:url(#SVGID_3__44781);" width="12" height="2"/>
<linearGradient id="SVGID_4__44781" gradientUnits="userSpaceOnUse" x1="30" y1="5.375" x2="30" y2="58.524" spreadMethod="reflect">
	<stop offset="0" style="stop-color:#1A6DFF"/>
	<stop offset="1" style="stop-color:#C822FF"/>
</linearGradient>
<rect x="21" y="34" style="fill:url(#SVGID_4__44781);" width="18" height="2"/>
</svg>